<svg width="500" height="160" viewBox="0 0 752 271" fill="none" xmlns="http://www.w3.org/2000/svg">
<path fill-rule="evenodd" clip-rule="evenodd" d="M345.086 35.9673C350.673 35.9673 355.202 40.4964 355.202 46.0833L355.202 160.732C355.202 166.319 350.673 170.848 345.086 170.848C339.499 170.848 334.97 166.319 334.97 160.732L334.97 46.0833C334.97 40.4964 339.499 35.9673 345.086 35.9673Z" fill="black"/>
<path fill-rule="evenodd" clip-rule="evenodd" d="M383.535 0.315562C383.54 0.31619 383.545 0.316805 382.178 10.3401L383.545 0.316805C389.08 1.0717 392.956 6.17123 392.201 11.7069C391.449 17.2247 386.38 21.0931 380.865 20.3706C380.852 20.369 380.822 20.3655 380.776 20.3606C380.663 20.3487 380.455 20.3284 380.164 20.3075C379.58 20.2654 378.679 20.2219 377.558 20.2342C375.271 20.2593 372.296 20.5146 369.295 21.3501C363.606 22.9336 358.268 26.3062 356.292 34.87C355.905 36.5438 355.601 39.5131 355.413 42.5611C355.325 43.9811 355.272 45.2595 355.24 46.1821C355.224 46.6417 355.214 47.0085 355.208 47.2553C355.205 47.3785 355.203 47.4715 355.202 47.5308L355.201 47.5939L355.2 47.6036L334.971 47.2609C334.877 52.8471 339.328 57.4522 344.914 57.5468C350.5 57.6415 355.105 53.1892 355.2 47.6036M355.2 47.6036C345.086 47.4323 334.971 47.2609 334.971 47.2609L334.972 47.2146L334.974 47.1132C334.976 47.0279 334.978 46.9073 334.982 46.7552C334.99 46.4512 335.002 46.0198 335.02 45.4894C335.056 44.432 335.118 42.9636 335.219 41.316C335.41 38.2286 335.779 33.7794 336.578 30.3207C340.671 12.5827 353.204 4.82768 363.87 1.85899C369.045 0.418369 373.868 0.0414293 377.335 0.00334123C379.09 -0.0159382 380.555 0.0511639 381.617 0.127654C382.15 0.166002 382.586 0.207011 382.91 0.241475C383.073 0.25872 383.208 0.274368 383.314 0.287287C383.367 0.293748 383.413 0.299531 383.452 0.304496L383.504 0.311314L383.526 0.314232L383.535 0.315562" fill="black"/>
<path fill-rule="evenodd" clip-rule="evenodd" d="M313.389 55.5248C313.389 49.9379 317.918 45.4088 323.505 45.4088H377.457C383.044 45.4088 387.573 49.9379 387.573 55.5248C387.573 61.1118 383.044 65.6409 377.457 65.6409H323.505C317.918 65.6409 313.389 61.1118 313.389 55.5248Z" fill="black"/>
<path fill-rule="evenodd" clip-rule="evenodd" d="M417.921 1.34888C423.508 1.34888 428.037 5.87798 428.037 11.4649L428.037 159.834C428.037 165.42 423.508 169.95 417.921 169.95C412.334 169.95 407.805 165.42 407.805 159.834L407.805 11.4649C407.805 5.87798 412.334 1.34888 417.921 1.34888Z" fill="black"/>
<path fill-rule="evenodd" clip-rule="evenodd" d="M670.148 43.1616C675.735 43.1616 680.264 47.6907 680.264 53.2777L680.264 159.833C680.264 165.42 675.735 169.949 670.148 169.949C664.561 169.949 660.032 165.42 660.032 159.833L660.032 53.2777C660.032 47.6907 664.561 43.1616 670.148 43.1616Z" fill="black"/>
<path fill-rule="evenodd" clip-rule="evenodd" d="M670.148 121.392C664.561 121.392 660.032 116.863 660.032 111.276C660.032 98.1839 665.259 86.1415 671.386 76.8093C677.505 67.4904 685.171 59.8786 691.513 55.6512C699.671 50.2121 708.745 47.6748 715.395 46.4486C718.786 45.8234 721.712 45.5094 723.819 45.3506C724.876 45.2709 725.737 45.2296 726.358 45.2081C726.669 45.1974 726.921 45.1916 727.108 45.1885C727.202 45.187 727.279 45.1861 727.34 45.1856L727.419 45.1851L727.449 45.185L727.467 45.185C727.469 45.185 727.472 45.185 727.472 55.301L727.472 45.185C733.059 45.185 737.588 49.7141 737.588 55.301C737.588 60.8776 733.076 65.4003 727.503 65.417C727.495 65.4171 727.487 65.4171 727.479 65.4171L727.489 65.4171L727.5 65.417L727.443 65.4178C727.372 65.419 727.242 65.4218 727.056 65.4282C726.686 65.441 726.1 65.4681 725.34 65.5255C723.811 65.6406 721.617 65.8746 719.064 66.3453C713.827 67.3109 707.727 69.1572 702.735 72.4853C698.96 75.0019 693.139 80.541 688.299 87.9135C683.467 95.2728 680.264 103.463 680.264 111.276C680.264 116.863 675.735 121.392 670.148 121.392Z" fill="black"/>
<path fill-rule="evenodd" clip-rule="evenodd" d="M616.195 43.1619C621.782 43.1619 626.311 47.691 626.311 53.2779L626.311 159.834C626.311 165.42 621.782 169.95 616.195 169.95C610.608 169.95 606.079 165.42 606.079 159.834L606.079 53.2779C606.079 47.691 610.608 43.1619 616.195 43.1619Z" fill="black"/>
<path d="M628.334 24.953C628.334 31.6573 622.899 37.0922 616.195 37.0922C609.491 37.0922 604.056 31.6573 604.056 24.953C604.056 18.2486 609.491 12.8137 616.195 12.8137C622.899 12.8137 628.334 18.2486 628.334 24.953Z" fill="black"/>
<path fill-rule="evenodd" clip-rule="evenodd" d="M566.29 43.1619C571.877 43.1619 576.406 47.691 576.406 53.2779L576.406 159.834C576.406 165.42 571.877 169.95 566.29 169.95C560.703 169.95 556.174 165.42 556.174 159.834L556.174 53.2779C556.174 47.691 560.703 43.1619 566.29 43.1619Z" fill="black"/>
<path fill-rule="evenodd" clip-rule="evenodd" d="M511.663 150.392C535.873 150.392 555.499 130.766 555.499 106.556C555.499 82.3455 535.873 62.7194 511.663 62.7194C487.453 62.7194 467.827 82.3455 467.827 106.556C467.827 130.766 487.453 150.392 511.663 150.392ZM511.663 170.624C547.047 170.624 575.731 141.939 575.731 106.556C575.731 71.1716 547.047 42.4873 511.663 42.4873C476.279 42.4873 447.595 71.1716 447.595 106.556C447.595 141.939 476.279 170.624 511.663 170.624Z" fill="black"/>
<path fill-rule="evenodd" clip-rule="evenodd" d="M442.272 199C444.606 199 446.498 200.892 446.498 203.226L446.498 265.205C446.498 267.539 444.606 269.431 442.272 269.431C439.938 269.431 438.046 267.539 438.046 265.205L438.046 203.226C438.046 200.892 439.938 199 442.272 199Z" fill="black"/>
<path fill-rule="evenodd" clip-rule="evenodd" d="M446.829 237.009C446.82 237.054 446.793 237.193 446.758 237.458C446.702 237.889 446.651 238.464 446.608 239.167C446.522 240.568 446.479 242.282 446.461 243.978C446.444 245.665 446.453 247.289 446.466 248.494C446.472 249.096 446.48 249.591 446.486 249.934C446.489 250.106 446.491 250.239 446.493 250.329L446.496 250.462M446.829 237.009C447.677 234.835 449.756 232.207 452.8 230.087C455.849 227.963 459.497 226.61 463.119 226.61C466.355 226.61 470.314 228.066 473.461 230.838C476.542 233.55 478.614 237.31 478.614 241.823L478.614 265.206C478.614 265.206 478.614 265.207 482.839 265.207L478.614 265.206C478.614 267.54 480.506 269.433 482.839 269.433C485.173 269.433 487.065 267.541 487.065 265.207L482.839 265.207C487.065 265.207 487.065 265.207 487.065 265.207L487.065 241.823C487.065 234.502 483.644 228.543 479.047 224.495C474.517 220.506 468.616 218.159 463.119 218.159C457.444 218.159 452.143 220.245 447.97 223.151C443.839 226.028 440.441 229.971 438.878 234.14C438.59 234.908 438.456 235.765 438.377 236.368C438.287 237.062 438.221 237.847 438.172 238.649C438.073 240.259 438.028 242.138 438.01 243.892C437.992 245.657 438.001 247.343 438.014 248.585C438.021 249.208 438.029 249.721 438.035 250.08C438.038 250.259 438.041 250.4 438.043 250.497L438.046 250.649C438.046 250.65 438.046 250.65 442.271 250.556L438.046 250.649C438.098 252.983 440.032 254.833 442.365 254.781C444.698 254.729 446.548 252.795 446.496 250.462" fill="black"/>
<path fill-rule="evenodd" clip-rule="evenodd" d="M664.317 199C666.651 199 668.543 200.892 668.543 203.226L668.543 265.205C668.543 267.539 666.651 269.431 664.317 269.431C661.983 269.431 660.091 267.539 660.091 265.205L660.091 203.226C660.091 200.892 661.983 199 664.317 199Z" fill="black"/>
<path fill-rule="evenodd" clip-rule="evenodd" d="M668.874 237.009C668.865 237.054 668.838 237.193 668.803 237.458C668.747 237.889 668.696 238.464 668.653 239.167C668.567 240.568 668.524 242.282 668.506 243.978C668.489 245.665 668.498 247.289 668.511 248.494C668.517 249.096 668.525 249.591 668.531 249.934C668.534 250.106 668.536 250.239 668.538 250.329L668.541 250.462M668.874 237.009C669.722 234.835 671.801 232.207 674.845 230.087C677.894 227.963 681.542 226.61 685.164 226.61C688.4 226.61 692.359 228.066 695.506 230.838C698.587 233.55 700.658 237.31 700.658 241.823L700.658 265.206C700.658 265.206 700.658 265.207 704.884 265.207L700.658 265.206C700.658 267.54 702.55 269.433 704.884 269.433C707.218 269.433 709.11 267.541 709.11 265.207L704.884 265.207C709.11 265.207 709.11 265.207 709.11 265.207L709.11 241.823C709.11 234.502 705.688 228.543 701.092 224.495C696.562 220.506 690.661 218.159 685.164 218.159C679.489 218.159 674.188 220.245 670.015 223.151C665.884 226.028 662.486 229.971 660.923 234.14C660.635 234.908 660.5 235.765 660.422 236.368C660.332 237.062 660.266 237.847 660.217 238.649C660.118 240.259 660.073 242.138 660.055 243.892C660.037 245.657 660.046 247.343 660.059 248.585C660.066 249.208 660.074 249.721 660.08 250.08C660.083 250.259 660.086 250.4 660.088 250.497L660.091 250.649C660.091 250.65 660.091 250.65 664.316 250.556L660.091 250.649C660.143 252.983 662.076 254.833 664.41 254.781C666.743 254.729 668.592 252.795 668.541 250.462" fill="black"/>
<path fill-rule="evenodd" clip-rule="evenodd" d="M618.631 199C620.965 199 622.857 200.892 622.857 203.226L622.857 265.205C622.857 267.539 620.965 269.431 618.631 269.431C616.297 269.431 614.405 267.539 614.405 265.205L614.405 203.226C614.405 200.892 616.297 199 618.631 199Z" fill="black"/>
<path fill-rule="evenodd" clip-rule="evenodd" d="M641.733 205.198C644.067 205.198 645.959 207.09 645.959 209.424L645.959 265.206C645.959 267.54 644.067 269.432 641.733 269.432C639.399 269.432 637.507 267.54 637.507 265.206L637.507 209.424C637.507 207.09 639.399 205.198 641.733 205.198Z" fill="black"/>
<path fill-rule="evenodd" clip-rule="evenodd" d="M655.537 220.693C655.537 223.027 653.645 224.919 651.311 224.919H631.59C629.257 224.919 627.365 223.027 627.365 220.693C627.365 218.359 629.257 216.467 631.59 216.467H651.311C653.645 216.467 655.537 218.359 655.537 220.693Z" fill="black"/>
<path fill-rule="evenodd" clip-rule="evenodd" d="M601.727 217.031C604.061 217.031 605.953 218.923 605.953 221.257L605.953 265.769C605.953 268.103 604.061 269.995 601.727 269.995C599.393 269.995 597.501 268.103 597.501 265.769L597.501 221.257C597.501 218.923 599.393 217.031 601.727 217.031Z" fill="black"/>
<path fill-rule="evenodd" clip-rule="evenodd" d="M578.907 261.825C589.021 261.825 597.22 253.626 597.22 243.513C597.22 233.399 589.021 225.201 578.907 225.201C568.794 225.201 560.595 233.399 560.595 243.513C560.595 253.626 568.794 261.825 578.907 261.825ZM578.907 270.277C593.689 270.277 605.671 258.294 605.671 243.513C605.671 228.731 593.689 216.749 578.907 216.749C564.126 216.749 552.144 228.731 552.144 243.513C552.144 258.294 564.126 270.277 578.907 270.277Z" fill="black"/>
<path fill-rule="evenodd" clip-rule="evenodd" d="M545.946 243.794C545.946 246.128 544.054 248.02 541.72 248.02H498.335C496.001 248.02 494.109 246.128 494.109 243.794C494.109 241.461 496.001 239.569 498.335 239.569H541.72C544.054 239.569 545.946 241.461 545.946 243.794Z" fill="black"/>
<path fill-rule="evenodd" clip-rule="evenodd" d="M529.724 258.493C526.369 260.854 522.318 262.02 518.221 261.805C514.124 261.59 510.218 260.006 507.128 257.306C504.039 254.606 501.946 250.948 501.183 246.917C500.421 242.885 501.034 238.715 502.924 235.074C504.814 231.432 507.872 228.531 511.607 226.834C515.343 225.138 519.54 224.745 523.525 225.717C527.511 226.69 531.055 228.973 533.589 232.199C536.122 235.426 537.5 239.41 537.5 243.513H545.946C545.946 240.62 545.477 237.768 544.576 235.061C543.61 232.158 542.147 229.423 540.231 226.983C536.529 222.269 531.351 218.933 525.528 217.512C519.705 216.091 513.573 216.665 508.115 219.144C502.657 221.623 498.189 225.862 495.427 231.182C492.666 236.503 491.77 242.596 492.884 248.486C493.998 254.376 497.057 259.722 501.571 263.666C506.085 267.61 511.792 269.925 517.778 270.24C520.875 270.402 523.955 270.025 526.885 269.144C529.617 268.323 532.219 267.065 534.585 265.4L529.724 258.493Z" fill="black"/>
<path d="M536.93 261.543C536.93 263.877 535.038 265.769 532.704 265.769C530.371 265.769 528.479 263.877 528.479 261.543C528.479 259.209 530.371 257.317 532.704 257.317C535.038 257.317 536.93 259.209 536.93 261.543Z" fill="black"/>
<path fill-rule="evenodd" clip-rule="evenodd" d="M86.9067 18.5C86.9067 11.5964 92.5032 6 99.4067 6C102.476 6 105.287 7.10617 107.462 8.94158C113.293 7.28603 119.447 6.3999 125.809 6.3999C162.828 6.3999 192.838 36.4099 192.838 73.4291C192.838 84.4605 190.173 94.8694 185.452 104.047C195.485 104.66 205.532 107.547 214.828 112.914C220.024 115.914 224.666 119.505 228.719 123.552C236.342 108.207 236.38 89.455 227.171 73.5046C223.067 66.3957 217.562 60.5995 211.207 56.263C209.741 56.8669 208.134 57.2 206.45 57.2C199.547 57.2 193.95 51.6035 193.95 44.7C193.95 37.7964 199.547 32.2 206.45 32.2C213.273 32.2 218.819 37.6662 218.948 44.4581C227.092 49.9672 234.145 57.3614 239.392 66.4489C257.902 98.5084 246.917 139.503 214.858 158.012C205.572 163.373 195.537 166.26 185.516 166.877C190.197 176.025 192.838 186.389 192.838 197.371C192.838 206.646 190.954 215.482 187.547 223.516C203.541 221.607 218.469 212.445 227.142 197.422C231.882 189.213 234.172 180.262 234.239 171.415C230.786 169.191 228.5 165.312 228.5 160.9C228.5 153.996 234.096 148.4 241 148.4C247.904 148.4 253.5 153.996 253.5 160.9C253.5 165.055 251.473 168.736 248.354 171.009C248.357 182.386 245.46 193.917 239.363 204.478C220.853 236.538 179.859 247.522 147.799 229.012C138.995 223.929 131.78 217.15 126.328 209.326C120.877 217.15 113.662 223.929 104.858 229.012C99.8199 231.921 94.5614 234.101 89.2042 235.586C98.7093 244.693 111.605 250.288 125.809 250.288C131.116 250.288 136.242 249.507 141.076 248.053C142.364 242.521 147.326 238.4 153.25 238.4C160.154 238.4 165.75 243.996 165.75 250.9C165.75 257.803 160.154 263.4 153.25 263.4C150.643 263.4 148.221 262.602 146.218 261.236C139.783 263.291 132.925 264.4 125.809 264.4C88.7893 264.4 58.7793 234.39 58.7793 197.371C58.7793 186.361 61.4333 175.972 66.1365 166.808C56.4501 166.065 46.7745 163.194 37.7992 158.012C32.6202 155.022 27.9912 151.446 23.9476 147.414C16.3445 162.752 16.3138 181.486 25.515 197.422C29.0815 203.6 33.7053 208.786 39.0259 212.884C40.7408 212 42.6868 211.5 44.7495 211.5C51.6531 211.5 57.2495 217.096 57.2495 224C57.2495 230.904 51.6531 236.5 44.7495 236.5C38.352 236.5 33.0769 231.694 32.338 225.495C24.7852 220.1 18.2377 213.041 13.2941 204.478C-5.21547 172.419 5.76895 131.424 37.8285 112.914C46.8146 107.726 56.5026 104.855 66.2007 104.116C61.4575 94.9216 58.7793 84.4881 58.7793 73.4291C58.7793 64.2586 60.6209 55.5182 63.9545 47.5576C48.3881 49.7544 33.9553 58.8348 25.4857 73.5046C21.0354 81.2127 18.7448 89.575 18.426 97.8909C22.3402 100.002 25 104.14 25 108.9C25 115.803 19.4036 121.4 12.5 121.4C5.59644 121.4 0 115.803 0 108.9C0 105.146 1.65479 101.778 4.27472 99.487C4.3442 88.2498 7.24434 76.8767 13.2648 66.4489C31.7744 34.3893 72.7689 23.4049 104.828 41.9145C113.649 47.0069 120.874 53.8013 126.328 61.6434C131.783 53.8013 139.008 47.0069 147.829 41.9145C152.639 39.1372 157.65 37.0239 162.757 35.5463C153.22 26.2432 140.184 20.5113 125.809 20.5113C120.755 20.5113 115.867 21.2196 111.239 22.5424C109.558 27.4622 104.896 31 99.4067 31C92.5032 31 86.9067 25.4036 86.9067 18.5ZM118.496 123.301C108.768 113.665 96.4418 107.407 83.3484 105.017C76.7791 96.2006 72.8907 85.2689 72.8907 73.4291C72.8907 64.0816 75.3143 55.3001 79.5675 47.6789C85.8073 48.6625 91.9751 50.7881 97.7727 54.1353C107.097 59.5185 114.163 67.3107 118.638 76.2717C113.045 91.1012 112.722 107.807 118.496 123.301ZM134.023 194.722C139.64 179.876 139.973 163.143 134.19 147.626C143.636 156.983 155.532 163.154 168.201 165.693C174.811 174.524 178.726 185.49 178.726 197.371C178.726 206.702 176.311 215.47 172.071 223.082C166.169 222.036 160.346 219.962 154.855 216.792C145.554 211.422 138.5 203.655 134.023 194.722ZM75.9618 118.243C65.5037 117.318 54.667 119.487 44.8842 125.135C39.9673 127.974 35.6782 131.483 32.0659 135.48C35.6721 139.463 39.9513 142.961 44.8549 145.792C54.609 151.423 65.4107 153.596 75.8402 152.692C82.5117 145.236 90.8274 139.282 100.217 135.4C90.8843 131.541 82.6125 125.636 75.9618 118.243ZM29.7502 138.225C29.7044 138.283 29.6587 138.342 29.6132 138.4H29.7502V138.225ZM79.6354 223.242C85.862 222.256 92.0163 220.132 97.802 216.792C107.103 211.422 114.157 203.655 118.634 194.722C113.017 179.876 112.684 163.143 118.467 147.626C108.72 157.28 96.3651 163.544 83.2436 165.924C76.7377 174.716 72.8907 185.594 72.8907 197.371C72.8907 206.768 75.3401 215.593 79.6354 223.242ZM134.161 123.301C139.935 107.807 139.612 91.1012 134.019 76.2717C138.494 67.3107 145.56 59.5185 154.884 54.1353C160.387 50.9583 166.223 48.8819 172.138 47.8378C176.336 55.4221 178.726 64.1465 178.726 73.4291C178.726 85.3736 174.769 96.3938 168.094 105.25C155.454 107.798 143.587 113.964 134.161 123.301ZM151.4 135.4C160.685 131.561 168.92 125.696 175.553 118.357C186.362 117.164 197.633 119.281 207.773 125.135C212.69 127.974 216.979 131.483 220.591 135.48C216.985 139.463 212.706 142.96 207.802 145.792C197.692 151.629 186.457 153.75 175.677 152.581C169.023 145.177 160.743 139.262 151.4 135.4ZM126.25 144.4C131.221 144.4 135.25 140.37 135.25 135.4C135.25 130.429 131.221 126.4 126.25 126.4C121.279 126.4 117.25 130.429 117.25 135.4C117.25 140.37 121.279 144.4 126.25 144.4Z" fill="black"/>
</svg>
